<svg width="48" height="48" viewBox="0 0 48 48" fill="none" xmlns="http://www.w3.org/2000/svg">
<circle cx="24" cy="24" r="24" fill="#DEDEDE"/>
<path d="M31.5 17.25H28.9008L27.6235 15.334C27.555 15.2312 27.4622 15.147 27.3533 15.0887C27.2445 15.0305 27.1229 15 26.9995 15H20.9995C20.876 15 20.7544 15.0305 20.6456 15.0887C20.5367 15.147 20.4439 15.2312 20.3754 15.334L19.0981 17.25H16.5C15.9035 17.2507 15.3316 17.488 14.9098 17.9098C14.488 18.3316 14.2507 18.9035 14.25 19.5V30C14.2507 30.5965 14.488 31.1684 14.9098 31.5902C15.3316 32.012 15.9035 32.2493 16.5 32.25H31.5C32.0965 32.2493 32.6684 32.012 33.0902 31.5902C33.512 31.1684 33.7493 30.5965 33.75 30V19.5C33.7493 18.9035 33.512 18.3316 33.0902 17.9098C32.6684 17.488 32.0965 17.2507 31.5 17.25V17.25ZM27.375 24.375C27.375 25.0425 27.1771 25.695 26.8062 26.2501C26.4354 26.8051 25.9083 27.2376 25.2916 27.4931C24.6749 27.7485 23.9963 27.8154 23.3416 27.6852C22.6869 27.5549 22.0855 27.2335 21.6135 26.7615C21.1415 26.2895 20.8201 25.6881 20.6898 25.0334C20.5596 24.3787 20.6265 23.7001 20.8819 23.0834C21.1374 22.4667 21.5699 21.9396 22.125 21.5688C22.68 21.1979 23.3325 21 24 21C24.8948 21.001 25.7527 21.3569 26.3854 21.9896C27.0181 22.6223 27.374 23.4802 27.375 24.375Z" fill="black"/>
</svg>
