<svg width="80" height="80" viewBox="0 0 80 80" fill="none" xmlns="http://www.w3.org/2000/svg">
<path d="M54.9987 36.25C54.9987 39.9584 53.899 43.5835 51.8388 46.6669C49.7785 49.7504 46.8501 52.1536 43.424 53.5727C39.9979 54.9919 36.2279 55.3632 32.5908 54.6397C28.9536 53.9163 25.6127 52.1305 22.9904 49.5083C20.3682 46.886 18.5824 43.5451 17.859 39.9079C17.1355 36.2708 17.5068 32.5008 18.926 29.0747C20.3451 25.6486 22.7483 22.7202 25.8318 20.6599C28.9152 18.5997 32.5403 17.5 36.2487 17.5C41.2198 17.5056 45.9856 19.4829 49.5007 22.998C53.0158 26.5131 54.9931 31.2789 54.9987 36.25ZM71.7648 71.768C71.2959 72.2369 70.66 72.5003 69.9969 72.5003C69.3338 72.5003 68.6979 72.2369 68.229 71.768L54.7218 58.2609C49.0407 63.0305 41.7375 65.4229 34.3354 64.9391C26.9333 64.4553 20.0037 61.1328 14.9916 55.6643C9.97958 50.1958 7.27202 43.0036 7.43359 35.5874C7.59517 28.1713 10.6134 21.1038 15.8589 15.8588C21.1043 10.6138 28.1721 7.59615 35.5882 7.43522C43.0044 7.27429 50.1964 9.98247 55.6644 14.995C61.1325 20.0075 64.4545 26.9374 64.9376 34.3396C65.4207 41.7417 63.0277 49.0447 58.2576 54.7254L71.7648 68.2326C72.2336 68.7014 72.497 69.3373 72.497 70.0003C72.497 70.6633 72.2336 71.2992 71.7648 71.768ZM36.2487 60C40.946 60 45.5378 58.6071 49.4435 55.9974C53.3492 53.3877 56.3933 49.6785 58.1908 45.3387C59.9884 40.999 60.4587 36.2237 59.5424 31.6166C58.626 27.0096 56.364 22.7777 53.0425 19.4562C49.721 16.1347 45.4891 13.8727 40.8821 12.9563C36.275 12.04 31.4997 12.5103 27.16 14.3079C22.8202 16.1054 19.111 19.1495 16.5013 23.0552C13.8916 26.9609 12.4987 31.5527 12.4987 36.25C12.5058 42.5467 15.0103 48.5835 19.4628 53.0359C23.9152 57.4884 29.952 59.9929 36.2487 60Z" fill="#0652DD"/>
</svg>
