<svg width="80" height="80" viewBox="0 0 80 80" fill="none" xmlns="http://www.w3.org/2000/svg">
<path d="M40 7.5C33.5721 7.5 27.2886 9.40609 21.944 12.9772C16.5994 16.5484 12.4338 21.6242 9.97393 27.5628C7.51408 33.5014 6.87047 40.0361 8.12449 46.3404C9.37851 52.6448 12.4738 58.4358 17.019 62.981C21.5643 67.5262 27.3552 70.6215 33.6596 71.8755C39.964 73.1295 46.4986 72.4859 52.4372 70.0261C58.3758 67.5662 63.4516 63.4006 67.0228 58.056C70.5939 52.7114 72.5 46.4279 72.5 40C72.4901 31.3835 69.0628 23.1228 62.97 17.03C56.8772 10.9373 48.6165 7.50996 40 7.5ZM51.25 30C51.9917 30 52.7167 30.2199 53.3334 30.632C53.9501 31.044 54.4307 31.6297 54.7146 32.3149C54.9984 33.0002 55.0727 33.7542 54.928 34.4816C54.7833 35.209 54.4261 35.8772 53.9017 36.4017C53.3772 36.9261 52.709 37.2833 51.9816 37.4279C51.2542 37.5726 50.5002 37.4984 49.815 37.2145C49.1297 36.9307 48.5441 36.4501 48.132 35.8334C47.7199 35.2167 47.5 34.4917 47.5 33.75C47.5001 32.7555 47.8952 31.8017 48.5984 31.0984C49.3017 30.3952 50.2555 30 51.25 30ZM28.75 30C29.4917 30 30.2167 30.2199 30.8334 30.632C31.4501 31.044 31.9307 31.6297 32.2146 32.3149C32.4984 33.0002 32.5727 33.7542 32.428 34.4816C32.2833 35.209 31.9261 35.8772 31.4017 36.4017C30.8772 36.9261 30.209 37.2833 29.4816 37.4279C28.7542 37.5726 28.0002 37.4984 27.315 37.2145C26.6297 36.9307 26.0441 36.4501 25.632 35.8334C25.2199 35.2167 25 34.4917 25 33.75C25.0001 32.7555 25.3952 31.8017 26.0984 31.0984C26.8017 30.3952 27.7555 30 28.75 30ZM55.1563 48.7524C53.2488 52.0484 50.3219 54.6352 46.8164 56.123C42.8844 57.7799 38.4831 57.9453 34.4378 56.5883C30.3925 55.2314 26.9813 52.4452 24.8438 48.7524C24.6793 48.4684 24.5724 48.1547 24.5291 47.8293C24.4859 47.5039 24.5071 47.1732 24.5917 46.8561C24.6763 46.5389 24.8225 46.2415 25.022 45.9809C25.2215 45.7202 25.4703 45.5014 25.7544 45.3369C26.0385 45.1724 26.3521 45.0655 26.6775 45.0223C27.0029 44.979 27.3336 45.0003 27.6508 45.0849C27.9679 45.1694 28.2653 45.3156 28.526 45.5151C28.7867 45.7146 29.0055 45.9635 29.1699 46.2476C30.5361 48.6039 32.6298 50.4535 35.1367 51.5186C36.6783 52.1616 38.3321 52.4927 40.0025 52.4927C41.6728 52.4927 43.3266 52.1616 44.8682 51.5186C46.3518 50.8892 47.6998 49.979 48.8379 48.8379C49.6103 48.0634 50.2798 47.1928 50.8301 46.2476C50.9946 45.9635 51.2134 45.7146 51.474 45.5151C51.7347 45.3156 52.0321 45.1694 52.3493 45.0849C52.6664 45.0003 52.9971 44.979 53.3225 45.0223C53.6479 45.0655 53.9616 45.1724 54.2456 45.3369C54.5297 45.5014 54.7786 45.7202 54.9781 45.9809C55.1776 46.2415 55.3238 46.5389 55.4083 46.8561C55.4929 47.1732 55.5141 47.5039 55.4709 47.8293C55.4276 48.1547 55.3207 48.4684 55.1563 48.7524Z" fill="#0652DD"/>
</svg>
