<svg width="80" height="80" viewBox="0 0 80 80" fill="none" xmlns="http://www.w3.org/2000/svg">
<path d="M77.0037 17.4596C76.6886 17.038 76.2484 16.7266 75.7459 16.5699C75.2435 16.4132 74.7043 16.4191 74.2054 16.5867C71.1387 17.618 67.9519 18.2497 64.7238 18.4663C62.9012 15.9006 60.3178 13.9731 57.3393 12.9566C54.3608 11.9402 51.138 11.8862 48.1272 12.8025C45.1163 13.7187 42.4699 15.5587 40.5625 18.062C38.6551 20.5653 37.5833 23.605 37.4989 26.7511C32.6208 25.7607 27.9895 23.8067 23.8763 21.0034C19.7632 18.2001 16.2509 14.604 13.5455 10.4259C13.283 10.0225 12.9096 9.70348 12.4702 9.5071C12.0308 9.31073 11.5441 9.24535 11.0685 9.31882C10.5928 9.39229 10.1485 9.60148 9.78886 9.92128C9.4292 10.2411 9.1695 10.6579 9.04093 11.1217C6.84389 19.0632 6.99907 27.4717 9.48762 35.3267C11.9762 43.1818 16.6911 50.1457 23.0603 55.3734C17.7009 58.3229 11.6989 59.9103 5.58207 59.9959C5.031 60.0042 4.4981 60.1942 4.0661 60.5365C3.6341 60.8787 3.32718 61.354 3.19298 61.8885C3.05879 62.4231 3.10483 62.987 3.32397 63.4927C3.5431 63.9984 3.92306 64.4176 4.40486 64.6852C10.6707 68.1539 17.7114 69.9833 24.8733 70.0035C32.0352 70.0236 39.086 68.234 45.3713 64.8006C51.6566 61.3673 56.9726 56.4016 60.8257 50.3645C64.6788 44.3274 66.9441 37.4146 67.4113 30.2679C71.1422 27.5242 74.3981 24.1875 77.0495 20.3905C77.3514 19.9593 77.5095 19.4439 77.5013 18.9176C77.4931 18.3913 77.319 17.8811 77.0037 17.4596Z" fill="#0652DD"/>
</svg>
