<svg width="16" height="16" viewBox="0 0 16 16" fill="none" xmlns="http://www.w3.org/2000/svg">
<path d="M14.5601 9.18893L14 8.3486V7.65133L14.5596 6.81197C14.6423 6.68803 14.6968 6.54744 14.7192 6.40013C14.7417 6.25283 14.7315 6.10239 14.6895 5.95944C14.5584 5.52786 14.3857 5.11004 14.1739 4.71188C14.1032 4.58093 14.0043 4.46729 13.8844 4.37915C13.7645 4.291 13.6266 4.23054 13.4805 4.20211L12.4893 4.00387L11.9961 3.5107L11.7979 2.51949C11.7695 2.37322 11.7089 2.23509 11.6206 2.11509C11.5323 1.99509 11.4184 1.89623 11.2871 1.82565C10.8893 1.61419 10.472 1.44168 10.041 1.31051C9.8982 1.26778 9.74767 1.25722 9.60026 1.2796C9.45286 1.30197 9.31223 1.35672 9.1885 1.4399L8.34866 1.99996H7.65139L6.81106 1.4399C6.68758 1.35657 6.54712 1.30173 6.39985 1.27935C6.25257 1.25697 6.10216 1.26761 5.9595 1.31051C5.52792 1.44155 5.1101 1.61424 4.71194 1.82613C4.58081 1.89659 4.46702 1.99538 4.37885 2.11531C4.29067 2.23525 4.23032 2.37332 4.20218 2.51949L4.00393 3.5107L3.51077 4.00387L2.51858 4.20211C2.37247 4.23043 2.23449 4.29092 2.11465 4.37917C1.99481 4.46742 1.89611 4.58124 1.82571 4.71237C1.61407 5.11031 1.44139 5.52778 1.31009 5.95895C1.26726 6.1017 1.25665 6.25217 1.27902 6.39952C1.3014 6.54686 1.3562 6.6874 1.43948 6.811L2.00003 7.65133V8.3486L1.43899 9.18942C1.35588 9.313 1.30121 9.45347 1.27892 9.60072C1.25663 9.74798 1.26728 9.89834 1.31009 10.041C1.44122 10.4719 1.6139 10.8891 1.82571 11.2866C1.89596 11.418 1.99466 11.5321 2.11461 11.6206C2.23456 11.709 2.37274 11.7696 2.51907 11.7978L3.51077 11.9961L4.00393 12.4892L4.20218 13.4799C4.23001 13.6264 4.29023 13.7647 4.37843 13.8848C4.46664 14.005 4.58059 14.1039 4.71194 14.1743C5.10974 14.386 5.52725 14.5583 5.95852 14.6889C6.1012 14.7327 6.2519 14.7438 6.39947 14.7215C6.54703 14.6992 6.6877 14.644 6.81106 14.56L7.65139 14H8.34866L9.1885 14.56C9.35514 14.672 9.55121 14.7321 9.75198 14.7329C9.84995 14.7327 9.94736 14.7181 10.041 14.6894C10.4719 14.5584 10.8891 14.3858 11.2866 14.1743C11.4181 14.1041 11.5322 14.0055 11.6206 13.8855C11.709 13.7655 11.7694 13.6273 11.7974 13.4809L11.9956 12.4892L12.4893 11.9961L13.481 11.7978C13.6271 11.7692 13.7651 11.7086 13.885 11.6203C14.0049 11.532 14.1037 11.4182 14.1743 11.2871C14.386 10.8893 14.5585 10.472 14.6895 10.041C14.7315 9.89814 14.7418 9.74781 14.7194 9.60059C14.697 9.45337 14.6427 9.31284 14.5601 9.18893ZM7.99985 11C7.4065 11 6.82648 10.8241 6.33313 10.4944C5.83979 10.1648 5.45527 9.69625 5.22821 9.14808C5.00114 8.5999 4.94173 7.9967 5.05749 7.41475C5.17325 6.83281 5.45897 6.29826 5.87852 5.87871C6.29808 5.45915 6.83263 5.17343 7.41457 5.05767C7.99652 4.94191 8.59972 5.00132 9.1479 5.22839C9.69607 5.45545 10.1646 5.83997 10.4943 6.33331C10.8239 6.82666 10.9998 7.40668 10.9998 8.00003C10.9998 8.79567 10.6838 9.55873 10.1212 10.1213C9.55855 10.6839 8.79549 11 7.99985 11Z" fill="black"/>
</svg>
