<svg width="16" height="16" viewBox="0 0 16 16" fill="none" xmlns="http://www.w3.org/2000/svg">
<path d="M8 13.5C8 13.5 1.75 10 1.75 5.75001C1.75013 4.99884 2.01041 4.2709 2.48659 3.68995C2.96277 3.109 3.62546 2.71091 4.36199 2.56334C5.09852 2.41578 5.86343 2.52786 6.52666 2.88053C7.18989 3.23319 7.71051 3.80468 8 4.49782L7.99999 4.49782C8.28949 3.80468 8.81011 3.2332 9.47334 2.88053C10.1366 2.52786 10.9015 2.41578 11.638 2.56334C12.3745 2.71091 13.0372 3.109 13.5134 3.68995C13.9896 4.2709 14.2499 4.99884 14.25 5.75001C14.25 10 8 13.5 8 13.5Z" stroke="black" stroke-width="2" stroke-linecap="round" stroke-linejoin="round"/>
</svg>
