<svg width="16" height="16" viewBox="0 0 16 16" fill="none" xmlns="http://www.w3.org/2000/svg">
<path d="M13.1265 2.87353C12.517 2.26404 11.6904 1.92163 10.8284 1.92163C9.96646 1.92163 9.1398 2.26404 8.53029 2.87353L7.29286 4.11096C7.24637 4.15738 7.20949 4.21251 7.18432 4.27319C7.15914 4.33387 7.14617 4.39892 7.14615 4.46461C7.14612 4.53031 7.15905 4.59537 7.18418 4.65607C7.20931 4.71677 7.24615 4.77192 7.2926 4.81837C7.33906 4.86483 7.39421 4.90167 7.45491 4.9268C7.51561 4.95193 7.58067 4.96485 7.64636 4.96483C7.71206 4.96481 7.77711 4.95184 7.83779 4.92666C7.89847 4.90149 7.9536 4.8646 8.00002 4.81811L9.23745 3.58069C9.44637 3.37176 9.6944 3.20602 9.96738 3.09295C10.2404 2.97988 10.5329 2.92168 10.8284 2.92167C11.1239 2.92167 11.4164 2.97986 11.6894 3.09293C11.9624 3.206 12.2104 3.37173 12.4194 3.58065C12.6283 3.78958 12.794 4.03761 12.9071 4.31059C13.0202 4.58356 13.0784 4.87614 13.0784 5.17161C13.0784 5.46707 13.0202 5.75965 12.9071 6.03263C12.794 6.30561 12.6283 6.55364 12.4194 6.76257L10.6517 8.53039C10.2294 8.95173 9.65722 9.18836 9.06069 9.18836C8.46415 9.18836 7.89197 8.95173 7.46968 8.53039C7.37589 8.43673 7.24874 8.38415 7.11618 8.38419C6.98363 8.38424 6.85652 8.43692 6.76279 8.53065C6.66906 8.62438 6.61638 8.75149 6.61633 8.88404C6.61628 9.0166 6.66887 9.14375 6.76253 9.23755C7.37253 9.8461 8.199 10.1879 9.06065 10.1879C9.92231 10.1879 10.7488 9.8461 11.3588 9.23755L13.1265 7.46972C13.736 6.86021 14.0784 6.03357 14.0784 5.17163C14.0784 4.30969 13.736 3.48304 13.1265 2.87353L13.1265 2.87353Z" fill="black"/>
<path d="M7.99999 11.182L6.76257 12.4194C6.55364 12.6284 6.30561 12.7941 6.03263 12.9072C5.75966 13.0202 5.46708 13.0784 5.17161 13.0784C4.87615 13.0784 4.58357 13.0203 4.31059 12.9072C4.03761 12.7941 3.78958 12.6284 3.58065 12.4195C3.37172 12.2105 3.20599 11.9625 3.09291 11.6895C2.97984 11.4166 2.92164 11.124 2.92164 10.8285C2.92164 10.533 2.97983 10.2405 3.0929 9.96749C3.20597 9.69451 3.3717 9.44648 3.58062 9.23755L5.34832 7.46973C5.77059 7.04834 6.34277 6.81169 6.93932 6.81169C7.53587 6.81169 8.10806 7.04834 8.53033 7.46973C8.57675 7.51621 8.63187 7.5531 8.69256 7.57827C8.75324 7.60345 8.81828 7.61642 8.88398 7.61644C8.94968 7.61647 9.01473 7.60354 9.07543 7.57841C9.13613 7.55328 9.19129 7.51644 9.23774 7.46998C9.28419 7.42353 9.32104 7.36838 9.34617 7.30768C9.3713 7.24698 9.38422 7.18192 9.3842 7.11622C9.38417 7.05053 9.3712 6.98548 9.34603 6.9248C9.32085 6.86412 9.28397 6.80899 9.23748 6.76257C8.62748 6.15402 7.80101 5.81226 6.93936 5.81226C6.07771 5.81226 5.25123 6.15402 4.64123 6.76257L2.87347 8.53039C2.26459 9.14002 1.92271 9.96649 1.92297 10.8281C1.92324 11.6897 2.26564 12.516 2.8749 13.1252C3.48415 13.7345 4.31041 14.0769 5.17202 14.0771C6.03364 14.0774 6.8601 13.7355 7.46972 13.1266L8.70715 11.8892C8.80081 11.7954 8.8534 11.6682 8.85335 11.5357C8.8533 11.4031 8.80062 11.276 8.70689 11.1823C8.61316 11.0885 8.48605 11.0359 8.3535 11.0358C8.22094 11.0358 8.09379 11.0883 8 11.182H7.99999Z" fill="black"/>
</svg>
