<svg width="16" height="16" viewBox="0 0 16 16" fill="none" xmlns="http://www.w3.org/2000/svg">
<path d="M15.4007 3.49192C15.3377 3.4076 15.2497 3.34533 15.1492 3.31399C15.0487 3.28264 14.9409 3.28382 14.8411 3.31736C14.2277 3.5236 13.5904 3.64995 12.9448 3.69327C12.5802 3.18013 12.0636 2.79463 11.4679 2.59133C10.8722 2.38804 10.2276 2.37725 9.62544 2.5605C9.02327 2.74375 8.49398 3.11174 8.1125 3.6124C7.73102 4.11306 7.51666 4.72102 7.49977 5.35022C6.52416 5.15215 5.59789 4.76134 4.77526 4.20068C3.95263 3.64003 3.25019 2.92081 2.70909 2.08518C2.65659 2.00451 2.58192 1.9407 2.49404 1.90143C2.40616 1.86215 2.30882 1.84908 2.21369 1.86377C2.11857 1.87846 2.0297 1.9203 1.95777 1.98426C1.88584 2.04822 1.8339 2.13158 1.80818 2.22434C1.36878 3.81264 1.39981 5.49434 1.89752 7.06535C2.39523 8.63636 3.33822 10.0291 4.61205 11.0747C3.54018 11.6646 2.33977 11.9821 1.11641 11.9992C1.0062 12.0008 0.899619 12.0389 0.81322 12.1073C0.72682 12.1757 0.665435 12.2708 0.638597 12.3777C0.611758 12.4846 0.620967 12.5974 0.664793 12.6985C0.70862 12.7997 0.784612 12.8835 0.880971 12.937C2.13414 13.6308 3.54228 13.9967 4.97466 14.0007C6.40703 14.0047 7.81721 13.6468 9.07427 12.9601C10.3313 12.2735 11.3945 11.2803 12.1651 10.0729C12.9358 8.86548 13.3888 7.48292 13.4823 6.05359C14.2284 5.50485 14.8796 4.83751 15.4099 4.0781C15.4703 3.99187 15.5019 3.88878 15.5003 3.78353C15.4986 3.67827 15.4638 3.57622 15.4007 3.49192Z" fill="black"/>
</svg>
