<svg width="80" height="80" viewBox="0 0 80 80" fill="none" xmlns="http://www.w3.org/2000/svg">
<path d="M74.9998 39.6445L42.3585 7.00316C41.7771 6.42013 41.0604 5.99011 40.2723 5.7515C39.4843 5.51288 38.6494 5.47309 37.8422 5.63566L12.6375 10.6765C12.1536 10.7735 11.7091 11.0114 11.3602 11.3603C11.0112 11.7093 10.7733 12.1537 10.6764 12.6376L5.63551 37.8424C5.47322 38.6496 5.51316 39.4844 5.75176 40.2724C5.99036 41.0604 6.42021 41.7771 7.00301 42.3587L39.644 74.9997C40.1083 75.4641 40.6595 75.8324 41.2661 76.0838C41.8728 76.3351 42.523 76.4645 43.1797 76.4645C43.8363 76.4645 44.4866 76.3352 45.0933 76.0839C45.7 75.8326 46.2512 75.4643 46.7155 75L74.9995 46.716C75.4639 46.2517 75.8323 45.7005 76.0836 45.0938C76.3349 44.4872 76.4643 43.8369 76.4644 43.1803C76.4644 42.5236 76.3351 41.8734 76.0838 41.2667C75.8325 40.66 75.4642 40.1088 74.9998 39.6445ZM26.248 30C25.5063 30 24.7813 29.7801 24.1646 29.368C23.5479 28.9559 23.0673 28.3703 22.7834 27.685C22.4996 26.9998 22.4254 26.2458 22.57 25.5184C22.7147 24.791 23.0719 24.1228 23.5963 23.5983C24.1208 23.0739 24.789 22.7167 25.5164 22.572C26.2438 22.4273 26.9978 22.5016 27.6831 22.7854C28.3683 23.0693 28.9539 23.5499 29.366 24.1666C29.7781 24.7833 29.998 25.5083 29.998 26.25C29.998 27.2445 29.6029 28.1984 28.8996 28.9016C28.1964 29.6049 27.2426 30 26.248 30Z" fill="#0652DD"/>
</svg>
